HIERARCHY
ROOT mixamorig:Hips
{
	OFFSET 0.000000 87.162163 2.265141
	CHANNELS 6 Xposition Yposition Zposition Xrotation Yrotation Zrotation
	JOINT mixamorig:Spine
	{
		OFFSET 0.000000 7.848404 3.918341
		CHANNELS 3 Xrotation Yrotation Zrotation
		JOINT mixamorig:Spine1
		{
			OFFSET -0.000000 11.439644 0.688892
			CHANNELS 3 Xrotation Yrotation Zrotation
			JOINT mixamorig:Spine2
			{
				OFFSET 0.000000 13.053993 -1.801730
				CHANNELS 3 Xrotation Yrotation Zrotation
				JOINT mixamorig:Neck
				{
					OFFSET 0.000000 14.136909 -5.258943
					CHANNELS 3 Xrotation Yrotation Zrotation
					JOINT mixamorig:Head
					{
						OFFSET -0.000000 10.430710 -0.827983
						CHANNELS 3 Xrotation Yrotation Zrotation
						JOINT mixamorig:HeadTop_End
						{
							OFFSET 0.000000 21.740402 -0.604783
							CHANNELS 3 Xrotation Yrotation Zrotation
							End Site
							{
								OFFSET 0.000000 25.832031 -0.000000
							}
						}
						JOINT mixamorig:Visor1
						{
							OFFSET -0.003251 25.655350 16.551157
							CHANNELS 3 Xrotation Yrotation Zrotation
							End Site
							{
								OFFSET 0.000000 25.832031 0.000000
							}
						}
						JOINT mixamorig:HairMidA1
						{
							OFFSET -0.001033 31.569519 8.438098
							CHANNELS 3 Xrotation Yrotation Zrotation
							End Site
							{
								OFFSET 0.000000 25.832016 -0.000000
							}
						}
						JOINT mixamorig:HairMidB1
						{
							OFFSET 0.003633 33.293411 -8.388910
							CHANNELS 3 Xrotation Yrotation Zrotation
							End Site
							{
								OFFSET 0.000000 25.832031 0.000000
							}
						}
						JOINT mixamorig:HairMidC1
						{
							OFFSET 0.006163 27.975342 -17.374311
							CHANNELS 3 Xrotation Yrotation Zrotation
							End Site
							{
								OFFSET 0.000000 25.832016 0.000000
							}
						}
						JOINT mixamorig:HairMidD1
						{
							OFFSET 0.007279 17.872238 -21.168732
							CHANNELS 3 Xrotation Yrotation Zrotation
							End Site
							{
								OFFSET 0.000000 25.832031 0.000000
							}
						}
						JOINT mixamorig:HairMidE1
						{
							OFFSET 4.865269 3.498810 -14.368998
							CHANNELS 3 Xrotation Yrotation Zrotation
							End Site
							{
								OFFSET 0.000000 25.832016 0.000000
							}
						}
						JOINT mixamorig:HairMidF1
						{
							OFFSET -4.854524 3.498764 -14.371698
							CHANNELS 3 Xrotation Yrotation Zrotation
							End Site
							{
								OFFSET 0.000000 25.832031 0.000000
							}
						}
						JOINT mixamorig:HairLeftA1
						{
							OFFSET 14.859479 25.730682 2.624092
							CHANNELS 3 Xrotation Yrotation Zrotation
							End Site
							{
								OFFSET 0.000000 25.832016 -0.000000
							}
						}
						JOINT mixamorig:HairLeftB1
						{
							OFFSET 12.159076 29.273544 -8.730730
							CHANNELS 3 Xrotation Yrotation Zrotation
							End Site
							{
								OFFSET 0.000000 25.832031 0.000000
							}
						}
						JOINT mixamorig:HairLeftC1
						{
							OFFSET 15.254454 15.944077 2.910579
							CHANNELS 3 Xrotation Yrotation Zrotation
							End Site
							{
								OFFSET 0.000000 25.832031 -0.000000
							}
						}
						JOINT mixamorig:HairLeftD1
						{
							OFFSET 15.641331 18.421539 -7.552444
							CHANNELS 3 Xrotation Yrotation Zrotation
							End Site
							{
								OFFSET 0.000000 25.832016 0.000000
							}
						}
						JOINT mixamorig:HairLeftE1
						{
							OFFSET 9.271540 17.899170 -18.316099
							CHANNELS 3 Xrotation Yrotation Zrotation
							End Site
							{
								OFFSET 0.000000 25.832016 0.000000
							}
						}
						JOINT mixamorig:HairLeftF1
						{
							OFFSET 10.743909 4.937805 -9.667402
							CHANNELS 3 Xrotation Yrotation Zrotation
							End Site
							{
								OFFSET 0.000000 25.832016 0.000000
							}
						}
						JOINT mixamorig:HairRightA1
						{
							OFFSET -14.858240 25.730515 2.615833
							CHANNELS 3 Xrotation Yrotation Zrotation
							End Site
							{
								OFFSET 0.000000 25.832031 -0.000000
							}
						}
						JOINT mixamorig:HairRightB1
						{
							OFFSET -12.151567 29.273392 -8.737486
							CHANNELS 3 Xrotation Yrotation Zrotation
							End Site
							{
								OFFSET 0.000000 25.832031 0.000000
							}
						}
						JOINT mixamorig:HairRightC1
						{
							OFFSET -15.253256 15.943893 2.902101
							CHANNELS 3 Xrotation Yrotation Zrotation
							End Site
							{
								OFFSET 0.000000 25.832031 -0.000000
							}
						}
						JOINT mixamorig:HairRightD1
						{
							OFFSET -15.634346 18.421341 -7.561136
							CHANNELS 3 Xrotation Yrotation Zrotation
							End Site
							{
								OFFSET 0.000000 25.832031 0.000000
							}
						}
						JOINT mixamorig:HairRightE1
						{
							OFFSET -9.258568 17.899063 -18.321249
							CHANNELS 3 Xrotation Yrotation Zrotation
							End Site
							{
								OFFSET 0.000000 25.832031 0.000000
							}
						}
						JOINT mixamorig:HairRightF1
						{
							OFFSET -10.735586 4.937683 -9.673372
							CHANNELS 3 Xrotation Yrotation Zrotation
							End Site
							{
								OFFSET 0.000000 25.832016 0.000000
							}
						}
					}
				}
				JOINT mixamorig:LeftShoulder
				{
					OFFSET 4.765166 7.323875 -1.972899
					CHANNELS 3 Xrotation Yrotation Zrotation
					JOINT mixamorig:LeftArm
					{
						OFFSET 8.083765 0.939484 -2.176468
						CHANNELS 3 Xrotation Yrotation Zrotation
						JOINT mixamorig:LeftForeArm
						{
							OFFSET 31.292164 0.000000 -0.000001
							CHANNELS 3 Xrotation Yrotation Zrotation
							JOINT mixamorig:LeftHand
							{
								OFFSET 31.723660 0.000000 -0.000001
								CHANNELS 3 Xrotation Yrotation Zrotation
								JOINT mixamorig:LeftHandThumb1
								{
									OFFSET 2.902626 -2.560440 4.416488
									CHANNELS 3 Xrotation Yrotation Zrotation
									JOINT mixamorig:LeftHandThumb2
									{
										OFFSET 2.339828 -1.345810 1.355842
										CHANNELS 3 Xrotation Yrotation Zrotation
										JOINT mixamorig:LeftHandThumb3
										{
											OFFSET 2.219818 -1.276772 1.286309
											CHANNELS 3 Xrotation Yrotation Zrotation
											JOINT mixamorig:LeftHandThumb4
											{
												OFFSET 2.285744 -1.314713 1.324502
												CHANNELS 3 Xrotation Yrotation Zrotation
												End Site
												{
													OFFSET 2.285744 -1.314705 1.324502
												}
											}
										}
									}
								}
								JOINT mixamorig:LeftHandIndex1
								{
									OFFSET 8.585075 -0.644569 3.119858
									CHANNELS 3 Xrotation Yrotation Zrotation
									JOINT mixamorig:LeftHandIndex2
									{
										OFFSET 3.348534 0.000000 0.000030
										CHANNELS 3 Xrotation Yrotation Zrotation
										JOINT mixamorig:LeftHandIndex3
										{
											OFFSET 3.314537 0.000008 0.000047
											CHANNELS 3 Xrotation Yrotation Zrotation
											JOINT mixamorig:LeftHandIndex4
											{
												OFFSET 2.937866 0.000000 0.000000
												CHANNELS 3 Xrotation Yrotation Zrotation
												End Site
												{
													OFFSET 2.937874 0.000000 0.000000
												}
											}
										}
									}
								}
								JOINT mixamorig:LeftHandMiddle1
								{
									OFFSET 8.140663 -0.002594 -0.000072
									CHANNELS 3 Xrotation Yrotation Zrotation
									JOINT mixamorig:LeftHandMiddle2
									{
										OFFSET 4.166290 -0.000015 0.000030
										CHANNELS 3 Xrotation Yrotation Zrotation
										JOINT mixamorig:LeftHandMiddle3
										{
											OFFSET 3.018105 0.000053 0.000032
											CHANNELS 3 Xrotation Yrotation Zrotation
											JOINT mixamorig:LeftHandMiddle4
											{
												OFFSET 4.093719 0.000000 -0.000000
												CHANNELS 3 Xrotation Yrotation Zrotation
												End Site
												{
													OFFSET 4.093719 0.000000 -0.000000
												}
											}
										}
									}
								}
								JOINT mixamorig:LeftHandRing1
								{
									OFFSET 8.587761 -0.034004 -2.884224
									CHANNELS 3 Xrotation Yrotation Zrotation
									JOINT mixamorig:LeftHandRing2
									{
										OFFSET 3.671196 0.000023 0.000002
										CHANNELS 3 Xrotation Yrotation Zrotation
										JOINT mixamorig:LeftHandRing3
										{
											OFFSET 2.728828 0.000015 0.000020
											CHANNELS 3 Xrotation Yrotation Zrotation
											JOINT mixamorig:LeftHandRing4
											{
												OFFSET 3.622383 0.000000 -0.000000
												CHANNELS 3 Xrotation Yrotation Zrotation
												End Site
												{
													OFFSET 3.622383 0.000000 -0.000000
												}
											}
										}
									}
								}
								JOINT mixamorig:LeftHandPinky1
								{
									OFFSET 7.870621 -0.677841 -5.213132
									CHANNELS 3 Xrotation Yrotation Zrotation
									JOINT mixamorig:LeftHandPinky2
									{
										OFFSET 3.068542 0.000000 0.000007
										CHANNELS 3 Xrotation Yrotation Zrotation
										JOINT mixamorig:LeftHandPinky3
										{
											OFFSET 2.395981 0.000023 0.000042
											CHANNELS 3 Xrotation Yrotation Zrotation
											JOINT mixamorig:LeftHandPinky4
											{
												OFFSET 2.849014 0.000000 0.000000
												CHANNELS 3 Xrotation Yrotation Zrotation
												End Site
												{
													OFFSET 2.849014 0.000000 -0.000000
												}
											}
										}
									}
								}
							}
							JOINT mixamorig:Left_Sleeve
							{
								OFFSET 19.653255 0.000000 -0.000001
								CHANNELS 3 Xrotation Yrotation Zrotation
								End Site
								{
									OFFSET 25.688454 0.000000 -0.000001
								}
							}
						}
					}
				}
				JOINT mixamorig:Whistle0
				{
					OFFSET -0.000105 11.453896 -0.009937
					CHANNELS 3 Xrotation Yrotation Zrotation
					JOINT mixamorig:Whistle1
					{
						OFFSET -0.002040 -6.349861 7.479822
						CHANNELS 3 Xrotation Yrotation Zrotation
						JOINT mixamorig:Whistle2
						{
							OFFSET -0.001261 -8.217644 4.717566
							CHANNELS 3 Xrotation Yrotation Zrotation
							End Site
							{
								OFFSET -0.001261 -8.217644 4.717560
							}
						}
					}
				}
				JOINT mixamorig:Right_Breast1
				{
					OFFSET -5.315914 3.102715 3.080552
					CHANNELS 3 Xrotation Yrotation Zrotation
					End Site
					{
						OFFSET 0.000000 10.519180 0.000000
					}
				}
				JOINT mixamorig:Left_Breast1
				{
					OFFSET 5.314172 3.102776 3.083506
					CHANNELS 3 Xrotation Yrotation Zrotation
					End Site
					{
						OFFSET 0.000000 10.519180 0.000000
					}
				}
				JOINT mixamorig:Hood0
				{
					OFFSET 0.001381 14.430473 -5.423190
					CHANNELS 3 Xrotation Yrotation Zrotation
					JOINT mixamorig:Hood1
					{
						OFFSET 0.001672 -5.553818 -5.895096
						CHANNELS 3 Xrotation Yrotation Zrotation
						JOINT mixamorig:Hood2
						{
							OFFSET -0.000161 -8.380455 0.763632
							CHANNELS 3 Xrotation Yrotation Zrotation
							End Site
							{
								OFFSET -0.000161 -8.380463 0.763632
							}
						}
					}
				}
				JOINT mixamorig:RightShoulder
				{
					OFFSET -4.765170 7.323799 -1.972894
					CHANNELS 3 Xrotation Yrotation Zrotation
					JOINT mixamorig:RightArm
					{
						OFFSET -8.083729 0.940002 -2.176473
						CHANNELS 3 Xrotation Yrotation Zrotation
						JOINT mixamorig:RightForeArm
						{
							OFFSET -31.292198 0.000008 -0.000001
							CHANNELS 3 Xrotation Yrotation Zrotation
							JOINT mixamorig:RightHand
							{
								OFFSET -31.723610 -0.000015 0.000001
								CHANNELS 3 Xrotation Yrotation Zrotation
								JOINT mixamorig:RightHandThumb1
								{
									OFFSET -2.902702 -2.560997 4.416483
									CHANNELS 3 Xrotation Yrotation Zrotation
									JOINT mixamorig:RightHandThumb2
									{
										OFFSET -2.339806 -1.346001 1.355854
										CHANNELS 3 Xrotation Yrotation Zrotation
										JOINT mixamorig:RightHandThumb3
										{
											OFFSET -2.219788 -1.275993 1.286288
											CHANNELS 3 Xrotation Yrotation Zrotation
											JOINT mixamorig:RightHandThumb4
											{
												OFFSET -2.285805 -1.315025 1.324511
												CHANNELS 3 Xrotation Yrotation Zrotation
												End Site
												{
													OFFSET -2.285828 -1.314980 1.324511
												}
											}
										}
									}
								}
								JOINT mixamorig:RightHandIndex1
								{
									OFFSET -8.585098 -0.644997 3.119853
									CHANNELS 3 Xrotation Yrotation Zrotation
									JOINT mixamorig:RightHandIndex2
									{
										OFFSET -3.348602 0.000000 0.000030
										CHANNELS 3 Xrotation Yrotation Zrotation
										JOINT mixamorig:RightHandIndex3
										{
											OFFSET -3.314499 0.000000 0.000050
											CHANNELS 3 Xrotation Yrotation Zrotation
											JOINT mixamorig:RightHandIndex4
											{
												OFFSET -2.937897 0.000000 0.000000
												CHANNELS 3 Xrotation Yrotation Zrotation
												End Site
												{
													OFFSET -2.937897 0.000000 0.000000
												}
											}
										}
									}
								}
								JOINT mixamorig:RightHandMiddle1
								{
									OFFSET -8.140701 -0.002998 -0.000071
									CHANNELS 3 Xrotation Yrotation Zrotation
									JOINT mixamorig:RightHandMiddle2
									{
										OFFSET -4.166290 0.000000 0.000030
										CHANNELS 3 Xrotation Yrotation Zrotation
										JOINT mixamorig:RightHandMiddle3
										{
											OFFSET -3.018105 0.000000 0.000032
											CHANNELS 3 Xrotation Yrotation Zrotation
											JOINT mixamorig:RightHandMiddle4
											{
												OFFSET -4.093704 0.000000 0.000000
												CHANNELS 3 Xrotation Yrotation Zrotation
												End Site
												{
													OFFSET -4.093704 0.000000 0.000000
												}
											}
										}
									}
								}
								JOINT mixamorig:RightHandRing1
								{
									OFFSET -8.587799 -0.033997 -2.884227
									CHANNELS 3 Xrotation Yrotation Zrotation
									JOINT mixamorig:RightHandRing2
									{
										OFFSET -3.671211 0.000000 0.000010
										CHANNELS 3 Xrotation Yrotation Zrotation
										JOINT mixamorig:RightHandRing3
										{
											OFFSET -2.728790 0.000000 0.000020
											CHANNELS 3 Xrotation Yrotation Zrotation
											JOINT mixamorig:RightHandRing4
											{
												OFFSET -3.622398 0.000000 0.000000
												CHANNELS 3 Xrotation Yrotation Zrotation
												End Site
												{
													OFFSET -3.622398 0.000000 0.000000
												}
											}
										}
									}
								}
								JOINT mixamorig:RightHandPinky1
								{
									OFFSET -7.870697 -0.678001 -5.213128
									CHANNELS 3 Xrotation Yrotation Zrotation
									JOINT mixamorig:RightHandPinky2
									{
										OFFSET -3.068512 0.000000 0.000000
										CHANNELS 3 Xrotation Yrotation Zrotation
										JOINT mixamorig:RightHandPinky3
										{
											OFFSET -2.395988 0.000000 0.000050
											CHANNELS 3 Xrotation Yrotation Zrotation
											JOINT mixamorig:RightHandPinky4
											{
												OFFSET -2.848999 0.000000 0.000000
												CHANNELS 3 Xrotation Yrotation Zrotation
												End Site
												{
													OFFSET -2.848999 0.000000 0.000000
												}
											}
										}
									}
								}
							}
							JOINT mixamorig:Right_Sleeve
							{
								OFFSET -19.653206 -0.000015 0.000001
								CHANNELS 3 Xrotation Yrotation Zrotation
								End Site
								{
									OFFSET -25.688393 0.000000 0.000000
								}
							}
						}
					}
				}
			}
		}
		JOINT mixamorig:Belly1
		{
			OFFSET 0.212380 1.592979 3.163679
			CHANNELS 3 Xrotation Yrotation Zrotation
			End Site
			{
				OFFSET 0.000000 7.504410 0.000000
			}
		}
	}
	JOINT mixamorig:LeftUpLeg
	{
		OFFSET 11.866977 -9.376381 -2.439418
		CHANNELS 3 Xrotation Yrotation Zrotation
		JOINT mixamorig:LeftLeg
		{
			OFFSET 0.000000 -32.909191 0.854440
			CHANNELS 3 Xrotation Yrotation Zrotation
			JOINT mixamorig:LeftFoot
			{
				OFFSET 0.000001 -31.923828 -3.032456
				CHANNELS 3 Xrotation Yrotation Zrotation
				JOINT mixamorig:LeftToeBase
				{
					OFFSET 0.000006 -12.942684 13.909951
					CHANNELS 3 Xrotation Yrotation Zrotation
					JOINT mixamorig:LeftToe_End
					{
						OFFSET 0.000011 0.111664 5.998963
						CHANNELS 3 Xrotation Yrotation Zrotation
						End Site
						{
							OFFSET -0.000007 0.111664 5.998962
						}
					}
				}
			}
		}
		JOINT mixamorig:Left_Butt1
		{
			OFFSET -6.630216 1.454788 -3.127206
			CHANNELS 3 Xrotation Yrotation Zrotation
			End Site
			{
				OFFSET -0.459490 18.609993 0.756214
			}
		}
		JOINT mixamorig:Left_ShortSleeve
		{
			OFFSET 0.000000 -15.493900 0.402277
			CHANNELS 3 Xrotation Yrotation Zrotation
			End Site
			{
				OFFSET 0.000000 -18.624737 0.483565
			}
		}
	}
	JOINT mixamorig:RightUpLeg
	{
		OFFSET -11.867000 -9.376366 -2.439418
		CHANNELS 3 Xrotation Yrotation Zrotation
		JOINT mixamorig:RightLeg
		{
			OFFSET -0.000001 -32.909199 0.854441
			CHANNELS 3 Xrotation Yrotation Zrotation
			JOINT mixamorig:RightFoot
			{
				OFFSET 0.000001 -31.923798 -3.032454
				CHANNELS 3 Xrotation Yrotation Zrotation
				JOINT mixamorig:RightToeBase
				{
					OFFSET 0.000008 -12.942620 13.910019
					CHANNELS 3 Xrotation Yrotation Zrotation
					JOINT mixamorig:RightToe_End
					{
						OFFSET -0.000007 0.111696 5.998960
						CHANNELS 3 Xrotation Yrotation Zrotation
						End Site
						{
							OFFSET -0.000012 0.111696 5.998960
						}
					}
				}
			}
		}
		JOINT mixamorig:Right_Butt1
		{
			OFFSET 6.630730 1.454857 -3.127160
			CHANNELS 3 Xrotation Yrotation Zrotation
			End Site
			{
				OFFSET 0.459464 18.610138 0.756796
			}
		}
		JOINT mixamorig:Right_ShortSleeve
		{
			OFFSET -0.000001 -15.493950 0.402279
			CHANNELS 3 Xrotation Yrotation Zrotation
			End Site
			{
				OFFSET 0.000000 -18.624908 0.483570
			}
		}
	}
}
MOTION
Frames: 2
Frame Time: 0.016667
-0.084210 71.853363 3.281032 13.812483 1.138150 -0.730625 14.674364 -1.144008 4.965910 5.508358 -0.089066 0.319986 5.507983 -0.130543 0.316223 -0.396768 0.386389 0.109287 -31.179332 3.925787 -3.315685 0.000001 0.000000 -0.000000 0.000001 0.000000 -0.000000 0.000001 0.000000 0.000000 0.000001 0.000000 -0.000000 0.000001 0.000000 -0.000000 0.000001 0.000000 -0.000000 0.000001 0.000000 -0.000000 0.000001 0.000000 -0.000000 0.000001 0.000000 -0.000000 0.000001 0.000000 -0.000000 0.000001 0.000000 -0.000000 0.000001 0.000000 0.000000 0.000001 0.000000 -0.000000 0.000001 0.000000 -0.000000 0.000001 0.000000 -0.000000 0.000001 0.000000 -0.000000 0.000001 0.000000 0.000000 0.000001 0.000000 0.000000 0.000001 0.000000 -0.000000 0.000001 0.000000 -0.000000 3.193085 -10.745634 28.646845 -65.579296 -24.901191 -14.507325 0.000020 -50.532871 0.000024 18.438768 -14.070944 17.840548 7.729995 3.812767 9.499772 4.685880 17.318571 1.406723 -0.583228 1.579811 2.534882 0.000002 0.000004 0.000008 0.118659 -3.829267 1.613429 0.013229 0.425374 -3.551663 0.055690 0.871617 -7.304513 0.000003 -0.000000 -0.000000 0.096958 2.403803 -2.316663 0.066721 0.954118 -7.992629 0.082716 1.061630 -8.905227 -0.000002 -0.000002 0.000000 1.301380 9.951065 -7.300989 0.205196 1.665251 -14.045128 0.127680 1.317025 -11.070476 -0.000002 0.000001 -0.000000 4.406442 20.320868 -11.758194 0.371115 -1.837392 -19.364163 0.160524 1.474422 -12.418529 0.000001 -0.000000 -0.000000 -0.000000 0.000003 -0.000001 0.000005 -0.000000 0.000001 -0.000003 0.000000 0.000000 0.000003 -0.000000 -0.000001 -0.000001 0.000000 0.000001 -0.000001 0.000000 0.000001 0.000003 -0.000000 -0.000000 0.000005 -0.000000 0.000000 0.000002 -0.000000 -0.000000 -2.624610 -15.379481 -9.652449 41.609994 -13.507830 68.677730 0.000006 2.207533 -0.000007 9.928717 4.358500 5.114254 -2.902572 -4.252598 -18.793230 5.175198 -14.594869 -0.599532 -1.285206 0.135092 -2.110010 0.000002 0.000001 0.000001 -0.571871 2.803377 9.842001 0.089026 -1.106918 9.186189 0.000027 0.019550 -0.154181 -0.000003 0.000000 0.000000 -0.152365 -0.282124 14.503907 0.235840 -1.792057 14.985387 -0.747393 -0.594864 4.426663 -0.000001 0.000000 -0.000001 0.987249 -3.859138 20.823502 0.505900 -2.598331 22.027032 -0.745178 -1.306513 9.645097 -0.000000 0.000000 -0.000000 2.589365 -6.716155 26.925755 0.760279 -3.154333 27.086724 0.180571 -1.570407 13.107000 0.000000 0.000001 -0.000001 -0.000001 0.000000 -0.000001 0.000002 -0.000000 0.000000 12.181843 6.553996 -4.259302 22.498696 1.776346 0.304105 -42.382379 0.345522 -0.176126 -13.021819 0.000001 -0.000011 0.000001 0.000001 0.000000 -0.002303 0.187828 -0.004882 -0.000001 0.000000 -0.000000 -64.392421 -3.545941 -0.356263 26.033522 8.559467 -2.659196 24.571464 0.417712 3.901489 -2.292510 -0.000000 -0.000004 0.000000 -0.000001 -0.000000 -0.002313 -0.188065 0.004876 0.000001 -0.000000 0.000000 
-0.071469 71.583374 2.406534 13.482562 1.337180 -0.633209 15.841070 -1.037858 4.932382 5.328291 -0.088110 0.264779 5.327815 -0.127239 0.261654 -0.396636 0.309956 0.087668 -31.656308 3.449381 -3.200844 -0.000001 -0.000000 -0.000000 -0.000001 -0.000000 -0.000000 -0.000001 -0.000000 -0.000000 -0.000001 -0.000000 -0.000000 -0.000001 -0.000000 -0.000000 -0.000001 -0.000000 -0.000000 -0.000001 -0.000000 -0.000000 -0.000001 -0.000000 -0.000000 -0.000001 -0.000000 -0.000000 -0.000001 -0.000000 -0.000000 -0.000001 -0.000000 -0.000000 -0.000001 -0.000000 -0.000000 -0.000001 -0.000000 -0.000000 -0.000001 -0.000000 -0.000000 -0.000001 -0.000000 -0.000000 -0.000001 -0.000000 -0.000000 -0.000001 -0.000000 -0.000000 -0.000001 -0.000000 -0.000000 -0.000001 -0.000000 -0.000000 -0.000001 -0.000000 -0.000000 2.951249 -10.068442 28.963093 -67.756173 -25.525949 -14.252936 0.000021 -49.984209 0.000007 18.808861 -13.667435 17.850903 7.729989 3.812770 9.499775 4.685882 17.318568 1.406719 -0.583229 1.579815 2.534882 -0.000001 0.000002 0.000001 0.122694 -3.836358 1.673728 0.012998 0.421773 -3.521560 0.049098 0.818620 -6.858532 0.000000 -0.000004 0.000002 0.094526 2.396954 -2.258563 0.066185 0.950284 -7.960445 0.077206 1.025919 -8.603220 -0.000002 0.000002 0.000001 1.291172 9.945432 -7.241922 0.204265 1.661512 -14.013011 0.124464 1.300525 -10.930121 -0.000001 -0.000000 -0.000000 4.384042 20.318319 -11.693658 0.369928 -1.840770 -19.334114 0.160140 1.472666 -12.403454 0.000001 -0.000000 -0.000000 0.000000 -0.000000 0.000001 0.000009 -0.000000 0.000000 0.000002 -0.000000 0.000000 -0.000002 -0.000000 -0.000000 -0.000000 0.000000 -0.000000 -0.000000 0.000000 -0.000000 -0.000002 -0.000000 -0.000001 0.000004 -0.000000 -0.000000 -0.000002 0.000000 0.000000 -2.657796 -15.273423 -9.954612 42.245649 -14.492169 69.562041 -0.000011 1.536896 0.000004 10.695146 3.768003 4.549776 -2.902571 -4.252597 -18.793230 5.175199 -14.594871 -0.599532 -1.285206 0.135094 -2.110010 0.000001 -0.000006 -0.000002 -0.601566 2.722389 10.458871 0.088739 -1.105170 9.171647 0.000091 0.031110 -0.249681 -0.000001 -0.000001 -0.000001 -0.149031 -0.355710 15.098960 0.236514 -1.794539 15.006672 -0.751687 -0.585155 4.352309 -0.000000 0.000001 -0.000002 1.027819 -3.920687 21.421285 0.506864 -2.600723 22.048320 -0.747995 -1.301245 9.603496 -0.000001 -0.000000 -0.000001 2.662625 -6.762469 27.549780 0.759466 -3.152765 27.072153 0.180377 -1.569563 13.099737 -0.000000 0.000001 -0.000002 -0.000001 -0.000001 0.000000 -0.000001 0.000000 -0.000000 13.754870 5.940503 -4.480165 19.340258 1.678755 0.022109 -44.079439 0.166179 0.334674 -9.757038 0.000003 -0.000008 -0.000000 0.000001 0.000000 -0.002302 0.187828 -0.004882 0.000000 -0.000000 0.000000 -64.945496 -2.568806 -0.353961 27.294810 6.620709 -2.611161 24.183553 0.411192 3.608627 -2.700514 0.000003 -0.000003 0.000001 0.000001 0.000000 -0.002308 -0.188065 0.004876 0.000000 0.000000 0.000000 
